<svg width="336" height="285" viewBox="0 0 336 285" fill="none" xmlns="http://www.w3.org/2000/svg">
<path fill-rule="evenodd" clip-rule="evenodd" d="M20 0C8.95431 0 0 8.95429 0 20V91C0.271088 86.0074 0.272888 86.0075 0.274994 86.0076L0.280884 86.0079L0.298706 86.0089L0.358368 86.0123C0.408783 86.0153 0.480438 86.0197 0.57309 86.0256C0.758423 86.0374 1.02774 86.0554 1.37918 86.0811C2.082 86.1326 3.11319 86.215 4.45728 86.3401C7.14542 86.5904 11.0855 87.0118 16.1539 87.6998C26.29 89.0757 40.942 91.5181 59.1192 95.7906C95.4708 104.335 145.943 120.204 202.596 149.515C259.472 178.94 293.951 211.915 314.252 237.705C324.397 250.592 330.986 261.665 335.058 269.575C335.115 269.686 335.172 269.797 335.229 269.908C335.731 268.154 336 266.302 336 264.388V20C336 8.9543 327.046 0 316 0H20ZM328.86 279.705C328.148 278.135 327.258 276.273 326.166 274.151C322.367 266.77 316.118 256.241 306.395 243.89C286.962 219.204 253.59 187.157 198.001 158.396C142.19 129.521 92.5126 113.912 56.8311 105.525C38.9916 101.332 24.656 98.9456 14.8088 97.6089C9.88544 96.9406 6.08487 96.5349 3.53027 96.2971C2.25299 96.1781 1.28729 96.1012 0.64859 96.0544C0.369555 96.034 0.152931 96.0193 0 96.0094V264.388C0 275.433 8.95431 284.388 20 284.388H316C320.897 284.388 325.383 282.628 328.86 279.705Z" fill="url(#paint0_linear_111_23993)"/>
<defs>
<linearGradient id="paint0_linear_111_23993" x1="168" y1="0" x2="168" y2="284.388" gradientUnits="userSpaceOnUse">
<stop stop-color="#EAEBEE"/>
<stop offset="1" stop-color="#D9D9D9"/>
</linearGradient>
</defs>
</svg>
