<svg width="337" height="214" viewBox="0 0 337 214" fill="none" xmlns="http://www.w3.org/2000/svg">
<path fill-rule="evenodd" clip-rule="evenodd" d="M20.4702 0C9.42452 0 0.470215 8.9543 0.470215 20V194C0.470215 197.815 1.53862 201.381 3.39257 204.415C4.32855 203.629 5.35954 202.772 6.48456 201.85C12.9471 196.55 22.5147 189.078 35.0002 180.323C59.9677 162.815 96.626 140.163 143.477 119.511C191.751 98.2329 239.844 87.6175 275.823 82.3143C293.825 79.6608 308.827 78.3326 319.345 77.6676C324.605 77.335 328.746 77.1681 331.583 77.0844C333.001 77.0425 334.094 77.0214 334.838 77.0108C335.21 77.0055 335.495 77.0028 335.689 77.0014L335.79 77.0008C335.84 77.0005 335.881 77.0003 335.913 77.0002L335.974 77L335.991 77L335.997 77C335.999 77 336 77 336 82C336 87 336.001 87 336.001 87H336L335.991 87L335.948 87.0001L335.861 87.0005L335.76 87.0012C335.589 87.0024 335.328 87.0048 334.981 87.0098C334.286 87.0197 333.244 87.0397 331.878 87.08C329.145 87.1607 325.116 87.3226 319.976 87.6476C309.693 88.2978 294.971 89.6 277.281 92.2074C241.877 97.4258 194.717 107.854 147.511 128.662C101.359 149.005 65.2703 171.31 40.7416 188.51C28.4789 197.109 19.1111 204.428 12.8252 209.582C12.041 210.225 11.3049 210.835 10.617 211.408C13.5254 213.058 16.8878 214 20.4702 214H316.025C327.071 214 336.025 205.046 336.025 194V20C336.025 8.95431 327.071 0 316.025 0H20.4702Z" fill="url(#paint0_linear_198_576)"/>
<defs>
<linearGradient id="paint0_linear_198_576" x1="168.248" y1="0" x2="168.248" y2="214" gradientUnits="userSpaceOnUse">
<stop stop-color="#EAEBEE"/>
<stop offset="1" stop-color="#D9D9D9"/>
</linearGradient>
</defs>
</svg>
