<?xml version="1.0" encoding="UTF-8" standalone="no"?>
<!DOCTYPE svg PUBLIC "-//W3C//DTD SVG 1.1//EN" "http://www.w3.org/Graphics/SVG/1.1/DTD/svg11.dtd">
<svg width="100%" height="100%" viewBox="0 0 1000 650" version="1.1" xmlns="http://www.w3.org/2000/svg" xmlns:xlink="http://www.w3.org/1999/xlink" xml:space="preserve" xmlns:serif="http://www.serif.com/" style="fill-rule:evenodd;clip-rule:evenodd;stroke-linejoin:round;stroke-miterlimit:2;">
    <g transform="matrix(1,0,0,1,-19616.4,-856.982)">
        <g transform="matrix(0.483815,0,0,1.49121,19265.4,574.273)">
            <g transform="matrix(3.72487,0,0,1.07924,-8575.62,-875.097)">
                <g transform="matrix(0.665842,0,0,0.7456,2345.72,-1969.99)">
                    <path d="M238.522,4477.19L227.272,4477.19L227.272,4470.99L257.272,4470.99L257.272,4477.19L246.022,4477.19L246.022,4505.99L238.522,4505.99L238.522,4477.19Z" style="fill:rgb(11,78,157);fill-rule:nonzero;"/>
                    <path d="M262.772,4470.99L287.272,4470.99L287.272,4477.19L270.322,4477.19L270.322,4484.99L285.772,4484.99L285.772,4490.99L270.322,4490.99L270.322,4499.79L287.272,4499.79L287.272,4505.99L262.772,4505.99L262.772,4470.99Z" style="fill:rgb(11,78,157);fill-rule:nonzero;"/>
                    <path d="M303.022,4487.74L291.772,4470.99L300.172,4470.99L307.872,4482.44L315.622,4470.99L323.772,4470.99L312.622,4487.59L324.272,4505.99L315.822,4505.99L307.722,4492.89L299.572,4505.99L291.272,4505.99L303.022,4487.74Z" style="fill:rgb(11,78,157);fill-rule:nonzero;"/>
                    <path d="M329.772,4470.99L337.272,4470.99L337.272,4484.89L352.272,4484.89L352.272,4470.99L359.772,4470.99L359.772,4505.99L352.272,4505.99L352.272,4491.09L337.272,4491.09L337.272,4505.99L329.772,4505.99L329.772,4470.99Z" style="fill:rgb(11,78,157);fill-rule:nonzero;"/>
                    <path d="M368.272,4470.99L375.772,4470.99L375.772,4494.24L391.022,4470.99L398.272,4470.99L398.272,4505.99L390.772,4505.99L390.772,4482.74L375.472,4505.99L368.272,4505.99L368.272,4470.99Z" style="fill:rgb(11,78,157);fill-rule:nonzero;"/>
                    <path d="M425.272,4491.64C424.405,4492.21 423.23,4492.73 421.747,4493.19C420.264,4493.66 418.522,4493.89 416.522,4493.89C412.722,4493.89 409.897,4492.96 408.047,4491.09C406.197,4489.23 405.272,4486.28 405.272,4482.24L405.272,4470.99L412.772,4470.99L412.772,4481.24C412.772,4483.51 413.23,4485.14 414.147,4486.12C415.064,4487.1 416.522,4487.59 418.522,4487.59C420.089,4487.59 421.43,4487.39 422.547,4486.97C423.664,4486.55 424.572,4486.11 425.272,4485.64L425.272,4470.99L432.772,4470.99L432.772,4505.99L425.272,4505.99L425.272,4491.64Z" style="fill:rgb(11,78,157);fill-rule:nonzero;"/>
                    <path d="M441.272,4470.99L465.772,4470.99L465.772,4477.19L448.822,4477.19L448.822,4484.99L464.272,4484.99L464.272,4490.99L448.822,4490.99L448.822,4499.79L465.772,4499.79L465.772,4505.99L441.272,4505.99L441.272,4470.99Z" style="fill:rgb(11,78,157);fill-rule:nonzero;"/>
                    <path d="M486.772,4506.59C484.472,4506.59 482.364,4506.26 480.447,4505.59C478.53,4504.93 476.872,4503.89 475.472,4502.47C474.072,4501.05 472.98,4499.21 472.197,4496.94C471.414,4494.68 471.022,4491.94 471.022,4488.74L471.022,4487.74C471.022,4484.68 471.43,4482.05 472.247,4479.87C473.064,4477.69 474.18,4475.89 475.597,4474.49C477.014,4473.09 478.68,4472.06 480.597,4471.39C482.514,4470.73 484.572,4470.39 486.772,4470.39C488.739,4470.39 490.589,4470.63 492.322,4471.09C494.055,4471.56 495.58,4472.28 496.897,4473.27C498.214,4474.25 499.28,4475.51 500.097,4477.04C500.914,4478.58 501.389,4480.39 501.522,4482.49L493.722,4482.49C493.355,4480.49 492.555,4479.03 491.322,4478.09C490.089,4477.16 488.572,4476.69 486.772,4476.69C485.739,4476.69 484.747,4476.88 483.797,4477.24C482.847,4477.61 482.005,4478.23 481.272,4479.09C480.539,4479.96 479.947,4481.09 479.497,4482.49C479.047,4483.89 478.822,4485.64 478.822,4487.74L478.822,4488.74C478.822,4490.94 479.055,4492.78 479.522,4494.27C479.989,4495.75 480.597,4496.94 481.347,4497.82C482.097,4498.7 482.947,4499.34 483.897,4499.72C484.847,4500.1 485.805,4500.29 486.772,4500.29C488.672,4500.29 490.239,4499.8 491.472,4498.82C492.705,4497.84 493.455,4496.39 493.722,4494.49L501.522,4494.49C501.355,4496.69 500.872,4498.56 500.072,4500.09C499.272,4501.63 498.222,4502.88 496.922,4503.84C495.622,4504.81 494.105,4505.51 492.372,4505.94C490.639,4506.38 488.772,4506.59 486.772,4506.59Z" style="fill:rgb(11,78,157);fill-rule:nonzero;"/>
                    <path d="M508.022,4470.99L515.522,4470.99L515.522,4485.24L518.522,4485.24L529.722,4470.99L538.022,4470.99L524.272,4487.54L538.522,4505.99L529.722,4505.99L518.522,4490.74L515.522,4490.74L515.522,4505.99L508.022,4505.99L508.022,4470.99Z" style="fill:rgb(11,78,157);fill-rule:nonzero;"/>
                    <path d="M544.022,4470.99L551.522,4470.99L551.522,4494.24L566.772,4470.99L574.022,4470.99L574.022,4505.99L566.522,4505.99L566.522,4482.74L551.222,4505.99L544.022,4505.99L544.022,4470.99Z" style="fill:rgb(11,78,157);fill-rule:nonzero;"/>
                    <path d="M582.522,4470.99L590.022,4470.99L590.022,4494.24L605.272,4470.99L612.522,4470.99L612.522,4505.99L605.022,4505.99L605.022,4482.74L589.722,4505.99L582.522,4505.99L582.522,4470.99ZM597.522,4468.99C594.255,4468.99 591.855,4468.27 590.322,4466.82C588.789,4465.37 588.022,4463.26 588.022,4460.49L594.322,4460.49C594.322,4462.09 594.589,4463.19 595.122,4463.79C595.655,4464.39 596.455,4464.69 597.522,4464.69C598.589,4464.69 599.389,4464.39 599.922,4463.79C600.455,4463.19 600.722,4462.09 600.722,4460.49L607.022,4460.49C607.022,4463.26 606.255,4465.37 604.722,4466.82C603.189,4468.27 600.789,4468.99 597.522,4468.99Z" style="fill:rgb(11,78,157);fill-rule:nonzero;"/>
                    <path d="M639.772,4506.59C639.405,4506.59 639.047,4506.58 638.697,4506.54C638.347,4506.51 638.039,4506.48 637.772,4506.44L637.772,4500.49C638.039,4500.53 638.347,4500.55 638.697,4500.57C639.047,4500.59 639.405,4500.59 639.772,4500.59C640.505,4500.59 641.097,4500.53 641.547,4500.39C641.997,4500.26 642.372,4500.05 642.672,4499.77C642.972,4499.48 643.239,4499.12 643.472,4498.67C643.705,4498.22 643.972,4497.68 644.272,4497.04L630.022,4470.99L638.122,4470.99L647.922,4489.74L655.722,4470.99L663.522,4470.99L651.672,4497.99C650.972,4499.56 650.264,4500.89 649.547,4501.97C648.83,4503.05 648.022,4503.94 647.122,4504.62C646.222,4505.3 645.18,4505.8 643.997,4506.12C642.814,4506.44 641.405,4506.59 639.772,4506.59Z" style="fill:rgb(11,78,157);fill-rule:nonzero;"/>
                    <path d="M668.522,4470.99L676.022,4470.99L676.022,4484.89L691.022,4484.89L691.022,4470.99L698.522,4470.99L698.522,4505.99L691.022,4505.99L691.022,4491.09L676.022,4491.09L676.022,4505.99L668.522,4505.99L668.522,4470.99Z" style="fill:rgb(11,78,157);fill-rule:nonzero;"/>
                    <path d="M707.022,4470.99L714.522,4470.99L714.522,4494.24L729.772,4470.99L737.022,4470.99L737.022,4505.99L729.522,4505.99L729.522,4482.74L714.222,4505.99L707.022,4505.99L707.022,4470.99Z" style="fill:rgb(11,78,157);fill-rule:nonzero;"/>
                    <path d="M745.522,4470.99L760.522,4470.99C764.455,4470.99 767.355,4471.82 769.222,4473.47C771.089,4475.12 772.022,4477.41 772.022,4480.34C772.022,4482.14 771.58,4483.69 770.697,4484.97C769.814,4486.25 768.605,4487.18 767.072,4487.74C769.072,4488.21 770.647,4489.15 771.797,4490.57C772.947,4491.98 773.522,4493.83 773.522,4496.09C773.522,4497.59 773.289,4498.95 772.822,4500.17C772.355,4501.39 771.63,4502.43 770.647,4503.29C769.664,4504.16 768.389,4504.83 766.822,4505.29C765.255,4505.76 763.372,4505.99 761.172,4505.99L745.522,4505.99L745.522,4470.99ZM759.822,4500.29C762.155,4500.29 763.772,4499.89 764.672,4499.09C765.572,4498.29 766.022,4497.11 766.022,4495.54C766.022,4493.98 765.572,4492.75 764.672,4491.87C763.772,4490.98 762.139,4490.54 759.772,4490.54L753.022,4490.54L753.022,4500.29L759.822,4500.29ZM759.022,4485.44C761.055,4485.44 762.48,4485.04 763.297,4484.24C764.114,4483.44 764.522,4482.36 764.522,4480.99C764.522,4479.59 764.122,4478.53 763.322,4477.79C762.522,4477.06 761.105,4476.69 759.072,4476.69L753.022,4476.69L753.022,4485.44L759.022,4485.44Z" style="fill:rgb(11,78,157);fill-rule:nonzero;"/>
                    <path d="M780.022,4470.99L804.522,4470.99L804.522,4477.19L787.572,4477.19L787.572,4484.99L803.022,4484.99L803.022,4490.99L787.572,4490.99L787.572,4499.79L804.522,4499.79L804.522,4505.99L780.022,4505.99L780.022,4470.99Z" style="fill:rgb(11,78,157);fill-rule:nonzero;"/>
                    <path d="M811.522,4470.99L825.022,4470.99C829.755,4470.99 833.272,4472.03 835.572,4474.12C837.872,4476.2 839.022,4478.99 839.022,4482.49C839.022,4485.99 837.872,4488.78 835.572,4490.87C833.272,4492.95 829.755,4493.99 825.022,4493.99L819.022,4493.99L819.022,4505.99L811.522,4505.99L811.522,4470.99ZM824.272,4487.79C826.939,4487.79 828.814,4487.34 829.897,4486.44C830.98,4485.54 831.522,4484.23 831.522,4482.49C831.522,4480.79 830.98,4479.48 829.897,4478.57C828.814,4477.65 826.939,4477.19 824.272,4477.19L819.022,4477.19L819.022,4487.79L824.272,4487.79Z" style="fill:rgb(11,78,157);fill-rule:nonzero;"/>
                    <path d="M859.522,4506.59C857.222,4506.59 855.114,4506.26 853.197,4505.59C851.28,4504.93 849.622,4503.89 848.222,4502.47C846.822,4501.05 845.73,4499.21 844.947,4496.94C844.164,4494.68 843.772,4491.94 843.772,4488.74L843.772,4487.74C843.772,4484.68 844.18,4482.05 844.997,4479.87C845.814,4477.69 846.93,4475.89 848.347,4474.49C849.764,4473.09 851.43,4472.06 853.347,4471.39C855.264,4470.73 857.322,4470.39 859.522,4470.39C861.489,4470.39 863.339,4470.63 865.072,4471.09C866.805,4471.56 868.33,4472.28 869.647,4473.27C870.964,4474.25 872.03,4475.51 872.847,4477.04C873.664,4478.58 874.139,4480.39 874.272,4482.49L866.472,4482.49C866.105,4480.49 865.305,4479.03 864.072,4478.09C862.839,4477.16 861.322,4476.69 859.522,4476.69C858.489,4476.69 857.497,4476.88 856.547,4477.24C855.597,4477.61 854.755,4478.23 854.022,4479.09C853.289,4479.96 852.697,4481.09 852.247,4482.49C851.797,4483.89 851.572,4485.64 851.572,4487.74L851.572,4488.74C851.572,4490.94 851.805,4492.78 852.272,4494.27C852.739,4495.75 853.347,4496.94 854.097,4497.82C854.847,4498.7 855.697,4499.34 856.647,4499.72C857.597,4500.1 858.555,4500.29 859.522,4500.29C861.422,4500.29 862.989,4499.8 864.222,4498.82C865.455,4497.84 866.205,4496.39 866.472,4494.49L874.272,4494.49C874.105,4496.69 873.622,4498.56 872.822,4500.09C872.022,4501.63 870.972,4502.88 869.672,4503.84C868.372,4504.81 866.855,4505.51 865.122,4505.94C863.389,4506.38 861.522,4506.59 859.522,4506.59Z" style="fill:rgb(11,78,157);fill-rule:nonzero;"/>
                    <path d="M880.772,4470.99L888.272,4470.99L888.272,4494.24L903.522,4470.99L910.772,4470.99L910.772,4505.99L903.272,4505.99L903.272,4482.74L887.972,4505.99L880.772,4505.99L880.772,4470.99Z" style="fill:rgb(11,78,157);fill-rule:nonzero;"/>
                    <path d="M927.522,4477.19L916.272,4477.19L916.272,4470.99L946.272,4470.99L946.272,4477.19L935.022,4477.19L935.022,4505.99L927.522,4505.99L927.522,4477.19Z" style="fill:rgb(11,78,157);fill-rule:nonzero;"/>
                    <path d="M951.772,4470.99L976.272,4470.99L976.272,4477.19L959.322,4477.19L959.322,4484.99L974.772,4484.99L974.772,4490.99L959.322,4490.99L959.322,4499.79L976.272,4499.79L976.272,4505.99L951.772,4505.99L951.772,4470.99Z" style="fill:rgb(11,78,157);fill-rule:nonzero;"/>
                    <path d="M992.022,4477.19L980.772,4477.19L980.772,4470.99L1010.77,4470.99L1010.77,4477.19L999.522,4477.19L999.522,4505.99L992.022,4505.99L992.022,4477.19Z" style="fill:rgb(11,78,157);fill-rule:nonzero;"/>
                </g>
                <g transform="matrix(0.554803,0,0,0.621362,2324.11,853.384)">
                    <g transform="matrix(-2.37513,3.42343,3.42343,2.37513,-4046.36,-3337.14)">
                        <path d="M60.575,1409.28L153.853,1409.28L167.245,1389.98L73.963,1389.98L60.575,1409.28Z" style="fill:rgb(11,78,157);"/>
                    </g>
                    <g transform="matrix(4.16667,0,0,4.16667,0,-5421.05)">
                        <rect x="184.741" y="1361.29" width="19.984" height="68.613" style="fill:rgb(11,78,157);"/>
                    </g>
                    <g transform="matrix(4.16667,0,0,4.16667,0,-5690.85)">
                        <rect x="156.404" y="1417.98" width="76.664" height="19.984" style="fill:rgb(11,78,157);"/>
                    </g>
                    <g transform="matrix(-4.16667,0,0,4.16667,1149.58,-5254.25)">
                        <ellipse cx="137.949" cy="1375.58" rx="15.059" ry="15.06" style="fill:rgb(237,25,58);"/>
                    </g>
                    <g transform="matrix(-4.16667,0,0,4.16667,748.915,-5654.92)">
                        <ellipse cx="89.87" cy="1423.66" rx="15.059" ry="15.06" style="fill:rgb(237,25,58);"/>
                    </g>
                    <g transform="matrix(-4.16667,0,0,4.16667,2102.41,-5654.92)">
                        <ellipse cx="252.289" cy="1423.66" rx="15.059" ry="15.06" style="fill:rgb(237,25,58);"/>
                    </g>
                    <g transform="matrix(-2.37514,3.42343,3.42343,2.37514,-2983.84,-3893.18)">
                        <path d="M222.994,1409.28L316.273,1409.28L329.664,1389.98L236.382,1389.98L222.994,1409.28Z" style="fill:rgb(11,78,157);"/>
                    </g>
                </g>
                <g transform="matrix(1.48101,0,0,1.65898,2160.09,-6148.43)">
                    <path d="M239.572,4487.69L228.022,4470.99L234.822,4470.99L243.322,4483.24L251.922,4470.99L258.522,4470.99L247.022,4487.59L259.022,4505.99L252.122,4505.99L243.222,4491.99L234.222,4505.99L227.522,4505.99L239.572,4487.69Z" style="fill:rgb(11,78,157);fill-rule:nonzero;"/>
                    <path d="M265.272,4470.99L288.772,4470.99L288.772,4476.19L271.272,4476.19L271.272,4485.39L287.272,4485.39L287.272,4490.59L271.272,4490.59L271.272,4500.79L288.772,4500.79L288.772,4505.99L265.272,4505.99L265.272,4470.99Z" style="fill:rgb(11,78,157);fill-rule:nonzero;"/>
                    <path d="M296.522,4470.99L309.272,4470.99C313.972,4470.99 317.439,4472 319.672,4474.02C321.905,4476.03 323.022,4478.74 323.022,4482.14C323.022,4485.54 321.905,4488.25 319.672,4490.27C317.439,4492.28 313.972,4493.29 309.272,4493.29L302.522,4493.29L302.522,4505.99L296.522,4505.99L296.522,4470.99ZM308.772,4488.09C310.339,4488.09 311.655,4487.97 312.722,4487.72C313.789,4487.47 314.639,4487.1 315.272,4486.62C315.905,4486.14 316.355,4485.52 316.622,4484.77C316.889,4484.02 317.022,4483.14 317.022,4482.14C317.022,4481.14 316.889,4480.28 316.622,4479.54C316.355,4478.81 315.905,4478.19 315.272,4477.69C314.639,4477.19 313.789,4476.82 312.722,4476.57C311.655,4476.32 310.339,4476.19 308.772,4476.19L302.522,4476.19L302.522,4488.09L308.772,4488.09Z" style="fill:rgb(11,78,157);fill-rule:nonzero;"/>
                    <path d="M343.522,4506.54C341.355,4506.54 339.347,4506.21 337.497,4505.54C335.647,4504.88 334.039,4503.83 332.672,4502.39C331.305,4500.96 330.23,4499.12 329.447,4496.87C328.664,4494.62 328.272,4491.91 328.272,4488.74L328.272,4487.74C328.272,4484.71 328.672,4482.1 329.472,4479.92C330.272,4477.73 331.364,4475.94 332.747,4474.54C334.13,4473.14 335.747,4472.11 337.597,4471.44C339.447,4470.78 341.422,4470.44 343.522,4470.44C345.455,4470.44 347.255,4470.69 348.922,4471.17C350.589,4471.65 352.047,4472.38 353.297,4473.34C354.547,4474.31 355.564,4475.51 356.347,4476.94C357.13,4478.38 357.605,4480.06 357.772,4481.99L351.472,4481.99C351.039,4479.83 350.114,4478.24 348.697,4477.24C347.28,4476.24 345.555,4475.74 343.522,4475.74C342.422,4475.74 341.339,4475.94 340.272,4476.34C339.205,4476.74 338.247,4477.41 337.397,4478.34C336.547,4479.28 335.864,4480.51 335.347,4482.04C334.83,4483.58 334.572,4485.48 334.572,4487.74L334.572,4488.74C334.572,4491.14 334.847,4493.14 335.397,4494.74C335.947,4496.34 336.655,4497.63 337.522,4498.59C338.389,4499.56 339.347,4500.24 340.397,4500.64C341.447,4501.04 342.489,4501.24 343.522,4501.24C345.922,4501.24 347.78,4500.69 349.097,4499.57C350.414,4498.45 351.205,4496.93 351.472,4494.99L357.772,4494.99C357.572,4497.06 357.072,4498.83 356.272,4500.29C355.472,4501.76 354.447,4502.95 353.197,4503.87C351.947,4504.78 350.497,4505.46 348.847,4505.89C347.197,4506.33 345.422,4506.54 343.522,4506.54Z" style="fill:rgb(11,78,157);fill-rule:nonzero;"/>
                    <path d="M379.272,4506.54C377.139,4506.54 375.105,4506.21 373.172,4505.54C371.239,4504.88 369.539,4503.84 368.072,4502.42C366.605,4501 365.439,4499.17 364.572,4496.92C363.705,4494.67 363.272,4491.94 363.272,4488.74L363.272,4487.74C363.272,4484.68 363.705,4482.05 364.572,4479.87C365.439,4477.69 366.605,4475.89 368.072,4474.49C369.539,4473.09 371.239,4472.07 373.172,4471.42C375.105,4470.77 377.139,4470.44 379.272,4470.44C381.405,4470.44 383.439,4470.77 385.372,4471.42C387.305,4472.07 389.005,4473.09 390.472,4474.49C391.939,4475.89 393.105,4477.69 393.972,4479.87C394.839,4482.05 395.272,4484.68 395.272,4487.74L395.272,4488.74C395.272,4491.94 394.839,4494.67 393.972,4496.92C393.105,4499.17 391.939,4501 390.472,4502.42C389.005,4503.84 387.305,4504.88 385.372,4505.54C383.439,4506.21 381.405,4506.54 379.272,4506.54ZM379.272,4501.24C380.505,4501.24 381.705,4501.03 382.872,4500.59C384.039,4500.16 385.072,4499.45 385.972,4498.47C386.872,4497.48 387.597,4496.19 388.147,4494.59C388.697,4492.99 388.972,4491.04 388.972,4488.74L388.972,4487.74C388.972,4485.54 388.697,4483.69 388.147,4482.17C387.597,4480.65 386.872,4479.42 385.972,4478.47C385.072,4477.52 384.039,4476.83 382.872,4476.39C381.705,4475.96 380.505,4475.74 379.272,4475.74C378.005,4475.74 376.789,4475.96 375.622,4476.39C374.455,4476.83 373.422,4477.52 372.522,4478.47C371.622,4479.42 370.905,4480.65 370.372,4482.17C369.839,4483.69 369.572,4485.54 369.572,4487.74L369.572,4488.74C369.572,4491.04 369.839,4492.99 370.372,4494.59C370.905,4496.19 371.622,4497.48 372.522,4498.47C373.422,4499.45 374.455,4500.16 375.622,4500.59C376.789,4501.03 378.005,4501.24 379.272,4501.24Z" style="fill:rgb(11,78,157);fill-rule:nonzero;"/>
                    <path d="M403.022,4470.99L409.022,4470.99L409.022,4485.39L426.022,4485.39L426.022,4470.99L432.022,4470.99L432.022,4505.99L426.022,4505.99L426.022,4490.59L409.022,4490.59L409.022,4505.99L403.022,4505.99L403.022,4470.99Z" style="fill:rgb(11,78,157);fill-rule:nonzero;"/>
                    <path d="M455.022,4506.54C452.855,4506.54 450.847,4506.21 448.997,4505.54C447.147,4504.88 445.539,4503.83 444.172,4502.39C442.805,4500.96 441.73,4499.12 440.947,4496.87C440.164,4494.62 439.772,4491.91 439.772,4488.74L439.772,4487.74C439.772,4484.71 440.172,4482.1 440.972,4479.92C441.772,4477.73 442.864,4475.94 444.247,4474.54C445.63,4473.14 447.247,4472.11 449.097,4471.44C450.947,4470.78 452.922,4470.44 455.022,4470.44C456.955,4470.44 458.755,4470.69 460.422,4471.17C462.089,4471.65 463.547,4472.38 464.797,4473.34C466.047,4474.31 467.064,4475.51 467.847,4476.94C468.63,4478.38 469.105,4480.06 469.272,4481.99L462.972,4481.99C462.539,4479.83 461.614,4478.24 460.197,4477.24C458.78,4476.24 457.055,4475.74 455.022,4475.74C453.922,4475.74 452.839,4475.94 451.772,4476.34C450.705,4476.74 449.747,4477.41 448.897,4478.34C448.047,4479.28 447.364,4480.51 446.847,4482.04C446.33,4483.58 446.072,4485.48 446.072,4487.74L446.072,4488.74C446.072,4491.14 446.347,4493.14 446.897,4494.74C447.447,4496.34 448.155,4497.63 449.022,4498.59C449.889,4499.56 450.847,4500.24 451.897,4500.64C452.947,4501.04 453.989,4501.24 455.022,4501.24C457.422,4501.24 459.28,4500.69 460.597,4499.57C461.914,4498.45 462.705,4496.93 462.972,4494.99L469.272,4494.99C469.072,4497.06 468.572,4498.83 467.772,4500.29C466.972,4501.76 465.947,4502.95 464.697,4503.87C463.447,4504.78 461.997,4505.46 460.347,4505.89C458.697,4506.33 456.922,4506.54 455.022,4506.54Z" style="fill:rgb(11,78,157);fill-rule:nonzero;"/>
                    <path d="M476.522,4470.99L482.522,4470.99L482.522,4485.64L486.022,4485.64L498.722,4470.99L505.522,4470.99L490.772,4487.64L506.022,4505.99L498.722,4505.99L486.022,4490.34L482.522,4490.34L482.522,4505.99L476.522,4505.99L476.522,4470.99Z" style="fill:rgb(11,78,157);fill-rule:nonzero;"/>
                    <path d="M512.272,4470.99L518.272,4470.99L518.272,4496.49L535.472,4470.99L541.272,4470.99L541.272,4505.99L535.272,4505.99L535.272,4480.49L518.072,4505.99L512.272,4505.99L512.272,4470.99Z" style="fill:rgb(11,78,157);fill-rule:nonzero;"/>
                    <path d="M550.772,4470.99L556.772,4470.99L556.772,4496.49L573.972,4470.99L579.772,4470.99L579.772,4505.99L573.772,4505.99L573.772,4480.49L556.572,4505.99L550.772,4505.99L550.772,4470.99ZM565.272,4468.74C562.172,4468.74 559.897,4468.06 558.447,4466.69C556.997,4465.33 556.272,4463.34 556.272,4460.74L561.772,4460.74C561.772,4462.28 562.064,4463.36 562.647,4463.99C563.23,4464.63 564.105,4464.94 565.272,4464.94C566.439,4464.94 567.314,4464.63 567.897,4463.99C568.48,4463.36 568.772,4462.28 568.772,4460.74L574.272,4460.74C574.272,4463.34 573.547,4465.33 572.097,4466.69C570.647,4468.06 568.372,4468.74 565.272,4468.74Z" style="fill:rgb(11,78,157);fill-rule:nonzero;"/>
                </g>
            </g>
        </g>
    </g>
</svg>
