<svg width="176" height="118" viewBox="0 0 176 118" fill="none" xmlns="http://www.w3.org/2000/svg">
<path d="M7.87539 89.4591H5.70677L4.16741 86.6146C4.11255 86.5105 4.05401 86.3255 3.99546 86.0552H3.97453C3.94456 86.1895 3.87838 86.3801 3.7743 86.6315L2.23127 89.4591H0.0437012L2.79605 85.1694L0.281831 80.8871H2.50701L3.7859 83.5107C3.88969 83.7243 3.97651 83.9604 4.05203 84.2192H4.07295C4.15016 83.987 4.24462 83.7412 4.35633 83.4824L5.76729 80.8871H7.80921L5.21948 85.1372L7.87539 89.4591Z" fill="white"/>
<path d="M14.0012 89.4591H8.92554V80.8871H13.801V82.3812H10.752V84.4005H13.5855V85.8892H10.752V87.965H14.0012V89.4591Z" fill="white"/>
<path d="M17.2333 86.4709V89.4591H15.4066V80.8871H18.3572C20.4899 80.8871 21.5553 81.7901 21.5553 83.5978C21.5553 84.4762 21.234 85.1807 20.59 85.7096C19.9458 86.2384 19.1412 86.4935 18.174 86.4709H17.2333ZM17.2333 82.304V85.0713H18.0246C19.0996 85.0713 19.6361 84.6046 19.6361 83.6714C19.6361 82.759 19.1033 82.304 18.0419 82.304H17.2333Z" fill="white"/>
<path d="M28.9718 89.1496C28.3484 89.4556 27.5345 89.6086 26.5314 89.6086C25.2392 89.6086 24.2154 89.2231 23.456 88.4488C22.6987 87.6761 22.3188 86.6467 22.3188 85.3585C22.3188 84.0041 22.7419 82.8972 23.5901 82.0357C24.4366 81.1743 25.5282 80.7438 26.8676 80.7438C27.7062 80.7438 28.407 80.8513 28.9718 81.0705V82.8347C28.392 82.4947 27.7345 82.3267 27.0017 82.3267C26.1629 82.3267 25.4943 82.5931 24.9917 83.1277C24.4911 83.6642 24.24 84.363 24.24 85.2261C24.24 86.0666 24.4779 86.7431 24.9541 87.2567C25.4301 87.7686 26.0743 88.0257 26.8846 88.0257C27.6496 88.0257 28.3448 87.8424 28.9718 87.4722V89.1496Z" fill="white"/>
<path d="M29.9498 85.2866C29.9498 83.9436 30.3427 82.8499 31.1266 82.0074C31.9106 81.1649 32.9457 80.7438 34.2339 80.7438C35.4582 80.7438 36.4441 81.1517 37.1921 81.9659C37.9382 82.7818 38.3124 83.8302 38.3124 85.109C38.3124 86.4445 37.9232 87.5288 37.1469 88.36C36.3706 89.1931 35.3541 89.6086 34.0962 89.6086C32.8665 89.6086 31.869 89.2061 31.102 88.3995C30.3333 87.593 29.9498 86.5559 29.9498 85.2866ZM31.871 85.1865C31.871 86.0214 32.0712 86.7032 32.4737 87.2324C32.8758 87.7612 33.4273 88.0257 34.1284 88.0257C34.8442 88.0257 35.4014 87.7726 35.8001 87.2643C36.1986 86.7581 36.3969 86.0762 36.3969 85.2205C36.3969 84.3271 36.2043 83.6226 35.8171 83.1031C35.4296 82.5855 34.8838 82.3267 34.1793 82.3267C33.4632 82.3267 32.8984 82.5912 32.4887 83.122C32.0769 83.6545 31.871 84.3421 31.871 85.1865Z" fill="white"/>
<path d="M47.0674 89.4591H45.2407V85.9231H41.5876V89.4591H39.7609V80.8871H41.5876V84.3459H45.2407V80.8871H47.0674V89.4591Z" fill="white"/>
<path d="M55.1866 89.1496C54.5633 89.4556 53.7491 89.6086 52.7462 89.6086C51.454 89.6086 50.4302 89.2231 49.6709 88.4488C48.9132 87.6761 48.5337 86.6467 48.5337 85.3585C48.5337 84.0041 48.9568 82.8972 49.8049 82.0357C50.6511 81.1743 51.7431 80.7438 53.0822 80.7438C53.921 80.7438 54.6218 80.8513 55.1866 81.0705V82.8347C54.6068 82.4947 53.9493 82.3267 53.2165 82.3267C52.3777 82.3267 51.7091 82.5931 51.2066 83.1277C50.706 83.6642 50.4548 84.363 50.4548 85.2261C50.4548 86.0666 50.6927 86.7431 51.1687 87.2567C51.6449 87.7686 52.2889 88.0257 53.0994 88.0257C53.8645 88.0257 54.5596 87.8424 55.1866 87.4722V89.1496Z" fill="white"/>
<path d="M63.6927 89.4591H61.3787L58.7833 85.7133C58.7171 85.6171 58.6416 85.4678 58.5568 85.2639H58.5285V89.4591H56.7018V80.8871H58.5285V84.9369H58.5568C58.6379 84.7613 58.7191 84.6083 58.8003 84.4779L61.2579 80.8871H63.4379L60.3719 84.9768L63.6927 89.4591Z" fill="white"/>
<path d="M72.1762 89.4591H70.444V84.5837C70.444 84.0775 70.4629 83.6224 70.5042 83.216H70.4646C70.4061 83.3464 70.27 83.5789 70.0568 83.9132L66.4204 89.4591H64.5541V80.8871H66.2863V85.7738C66.2863 86.3632 66.271 86.758 66.2371 86.9582H66.2597L70.1945 80.8871H72.1762V89.4591Z" fill="white"/>
<path d="M81.8002 89.4593H80.068V84.5839C80.068 84.0776 80.0869 83.6226 80.1285 83.2162H80.0889C80.0303 83.3466 79.8943 83.579 79.6808 83.9133L76.0446 89.4593H74.1783V80.8872H75.9103V85.7739C75.9103 86.3633 75.8953 86.7581 75.8614 86.9583H75.884L79.8188 80.8872H81.8002V89.4593ZM79.9056 78.5128C79.8508 79.0702 79.6449 79.5082 79.2896 79.8275C78.9327 80.1468 78.4774 80.3055 77.9203 80.3055C77.3668 80.3055 76.9078 80.1432 76.5413 79.8162C76.1767 79.4893 75.9821 79.0549 75.9615 78.5128H76.9853C77.0438 79.0549 77.3611 79.327 77.9353 79.327C78.489 79.327 78.8043 79.0549 78.8818 78.5128H79.9056Z" fill="white"/>
<path d="M93.0946 82.3812H90.6482V89.4591H88.8178V82.3812H86.3774V80.8871H93.0946V82.3812Z" fill="white"/>
<path d="M99.3429 89.4591H94.2672V80.8871H99.1426V82.3812H96.0936V84.4005H98.9271V85.8892H96.0936V87.965H99.3429V89.4591Z" fill="white"/>
<path d="M107.634 89.4591H105.465L103.925 86.6146C103.871 86.5105 103.812 86.3255 103.754 86.0552H103.733C103.703 86.1895 103.637 86.3801 103.533 86.6315L101.989 89.4591H99.802L102.554 85.1694L100.04 80.8871H102.265L103.544 83.5107C103.648 83.7243 103.735 83.9604 103.81 84.2192H103.831C103.908 83.987 104.003 83.7412 104.115 83.4824L105.526 80.8871H107.568L104.978 85.1372L107.634 89.4591Z" fill="white"/>
<path d="M115.99 89.4591H114.164V85.9231H110.511V89.4591H108.684V80.8871H110.511V84.3459H114.164V80.8871H115.99V89.4591Z" fill="white"/>
<path d="M125.615 89.4591H123.883V84.5837C123.883 84.0775 123.902 83.6224 123.943 83.216H123.903C123.845 83.3464 123.709 83.5789 123.496 83.9132L119.859 89.4591H117.993V80.8871H119.725V85.7738C119.725 86.3632 119.71 86.758 119.676 86.9582H119.699L123.634 80.8871H125.615V89.4591Z" fill="white"/>
<path d="M134.376 89.4591H132.544V86.0063C131.728 86.4483 130.915 86.6692 130.103 86.6692C128.35 86.6692 127.474 85.8306 127.474 84.1513V80.8871H129.3V83.9963C129.3 84.7613 129.716 85.1428 130.545 85.1428C131.202 85.1428 131.867 84.9426 132.544 84.5441V80.8871H134.376V89.4591Z" fill="white"/>
<path d="M141.492 89.4591H136.416V80.8871H141.291V82.3812H138.242V84.4005H141.076V85.8892H138.242V87.965H141.492V89.4591Z" fill="white"/>
<path d="M149.013 89.1496C148.39 89.4556 147.576 89.6086 146.573 89.6086C145.281 89.6086 144.257 89.2231 143.498 88.4488C142.74 87.6761 142.36 86.6467 142.36 85.3585C142.36 84.0041 142.784 82.8972 143.632 82.0357C144.478 81.1743 145.57 80.7438 146.909 80.7438C147.748 80.7438 148.449 80.8513 149.013 81.0705V82.8347C148.434 82.4947 147.776 82.3267 147.043 82.3267C146.204 82.3267 145.536 82.5931 145.033 83.1277C144.533 83.6642 144.282 84.363 144.282 85.2261C144.282 86.0666 144.519 86.7431 144.996 87.2567C145.472 87.7686 146.116 88.0257 146.926 88.0257C147.691 88.0257 148.386 87.8424 149.013 87.4722V89.1496Z" fill="white"/>
<path d="M157.519 89.4591H155.205L152.61 85.7133C152.544 85.6171 152.468 85.4678 152.383 85.2639H152.355V89.4591H150.528V80.8871H152.355V84.9369H152.383C152.464 84.7613 152.545 84.6083 152.627 84.4779L155.084 80.8871H157.264L154.198 84.9768L157.519 89.4591Z" fill="white"/>
<path d="M166.003 89.4591H164.27V84.5837C164.27 84.0775 164.289 83.6224 164.331 83.216H164.291C164.232 83.3464 164.096 83.5789 163.883 83.9132L160.247 89.4591H158.38V80.8871H160.113V85.7738C160.113 86.3632 160.098 86.758 160.063 86.9582H160.086L164.021 80.8871H166.003V89.4591Z" fill="white"/>
<path d="M175.627 89.4593H173.895V84.5839C173.895 84.0776 173.914 83.6226 173.955 83.2162H173.916C173.857 83.3466 173.721 83.579 173.508 83.9133L169.871 89.4593H168.005V80.8872H169.737V85.7739C169.737 86.3633 169.722 86.7581 169.688 86.9583H169.711L173.646 80.8872H175.627V89.4593ZM173.732 78.5128C173.678 79.0702 173.472 79.5082 173.116 79.8275C172.76 80.1468 172.304 80.3055 171.747 80.3055C171.194 80.3055 170.735 80.1432 170.368 79.8162C170.004 79.4893 169.809 79.0549 169.788 78.5128H170.812C170.871 79.0549 171.188 79.327 171.762 79.327C172.316 79.327 172.631 79.0549 172.709 78.5128H173.732Z" fill="white"/>
<path d="M15.3854 100.148L9.90252 112.2C8.78145 114.663 7.7373 116.245 6.763 116.948C5.78871 117.648 4.73296 118 3.59237 118C2.66842 118 1.91444 117.865 1.32675 117.594V114.161C1.99165 114.59 2.67606 114.806 3.38762 114.806C4.41593 114.806 5.32461 113.967 6.11734 112.293L0.340576 100.148H4.58986L7.64849 107.444C7.79923 107.797 7.93442 108.264 8.05433 108.836H8.07752C8.16661 108.431 8.30971 107.974 8.50684 107.476L11.4413 100.148H15.3854Z" fill="white"/>
<path d="M32.2507 117.695H28.5116V110.456H21.034V117.695H17.2949V100.148H21.034V107.228H28.5116V100.148H32.2507V117.695Z" fill="white"/>
<path d="M51.9502 117.695H48.4045V107.715C48.4045 106.679 48.4433 105.747 48.5284 104.916H48.4472C48.3273 105.182 48.049 105.658 47.6121 106.343L40.169 117.695H36.349V100.148H39.8944V110.151C39.8944 111.357 39.8635 112.165 39.794 112.575H39.8403L47.8943 100.148H51.9502V117.695Z" fill="white"/>
<path d="M56.0494 117.695V100.148H62.2824C64.1922 100.148 65.6654 100.512 66.6977 101.235C67.7339 101.962 68.2523 102.963 68.2523 104.247C68.2523 105.202 67.9313 106.033 67.2893 106.752C66.6476 107.468 65.8393 107.963 64.865 108.237V108.28C66.0868 108.431 67.073 108.887 67.827 109.641C68.577 110.395 68.952 111.342 68.952 112.482C68.952 114.075 68.3875 115.344 67.2545 116.283C66.1216 117.223 64.5752 117.695 62.611 117.695H56.0494ZM59.7882 102.936V107.274H61.5669C62.4215 107.274 63.0943 107.069 63.5853 106.66C64.0763 106.254 64.3201 105.685 64.3201 104.951C64.3201 103.605 63.3378 102.936 61.3737 102.936H59.7882ZM59.7882 110.093V114.907H62.0078C62.9552 114.907 63.6897 114.69 64.2233 114.249C64.7567 113.812 65.0237 113.206 65.0237 112.428C65.0237 111.686 64.7567 111.114 64.231 110.704C63.7013 110.298 62.9512 110.093 61.9767 110.093H59.7882Z" fill="white"/>
<path d="M82.2985 117.695H71.9093V100.148H81.8887V103.207H75.6481V107.34H81.4478V110.387H75.6481V114.636H82.2985V117.695Z" fill="white"/>
<path d="M88.9142 111.578V117.695H85.1754V100.148H91.2149C95.5801 100.148 97.7609 101.997 97.7609 105.697C97.7609 107.495 97.1037 108.937 95.7852 110.02C94.4667 111.102 92.8196 111.624 90.8399 111.578H88.9142ZM88.9142 103.048V108.713H90.5345C92.7345 108.713 93.8326 107.758 93.8326 105.848C93.8326 103.98 92.7421 103.048 90.5692 103.048H88.9142Z" fill="white"/>
<path d="M112.941 117.06C111.665 117.686 109.998 118 107.945 118C105.301 118 103.205 117.211 101.651 115.626C100.1 114.044 99.323 111.937 99.323 109.3C99.323 106.528 100.189 104.262 101.925 102.499C103.657 100.736 105.892 99.8544 108.634 99.8544C110.35 99.8544 111.785 100.075 112.941 100.523V104.135C111.754 103.439 110.408 103.095 108.908 103.095C107.191 103.095 105.823 103.64 104.794 104.734C103.769 105.832 103.255 107.263 103.255 109.03C103.255 110.75 103.743 112.134 104.717 113.186C105.691 114.234 107.01 114.76 108.668 114.76C110.234 114.76 111.657 114.385 112.941 113.627V117.06Z" fill="white"/>
<path d="M131.643 117.695H128.097V107.715C128.097 106.679 128.136 105.747 128.221 104.916H128.14C128.02 105.182 127.742 105.658 127.305 106.343L119.862 117.695H116.042V100.148H119.587V110.151C119.587 111.357 119.556 112.165 119.487 112.575H119.533L127.587 100.148H131.643V117.695Z" fill="white"/>
<path d="M147.851 103.207H142.844V117.695H139.098V103.207H134.102V100.148H147.851V103.207Z" fill="white"/>
<path d="M160.642 117.695H150.253V100.148H160.232V103.207H153.992V107.34H159.792V110.387H153.992V114.636H160.642V117.695Z" fill="white"/>
<path d="M175.628 103.207H170.622V117.695H166.875V103.207H161.879V100.148H175.628V103.207Z" fill="white"/>
<path fill-rule="evenodd" clip-rule="evenodd" d="M56.6793 0.561035L17.7581 56.6575H0.56189L39.4873 0.561318C39.4873 0.561035 56.6793 0.561318 56.6793 0.561035Z" fill="white"/>
<path d="M95.0963 6.45428H80.468V56.6779H95.0963V6.45428Z" fill="white"/>
<path d="M115.842 0.553467H59.7252V15.1813H115.842V0.553467Z" fill="white"/>
<path fill-rule="evenodd" clip-rule="evenodd" d="M46.2172 35.1933C52.3039 35.1933 57.2402 40.1295 57.2402 46.2162C57.2402 52.3031 52.3039 57.2393 46.2172 57.2393C40.1302 57.2393 35.194 52.3031 35.194 46.2162C35.194 40.1295 40.1302 35.1933 46.2172 35.1933Z" fill="#E7223D"/>
<path fill-rule="evenodd" clip-rule="evenodd" d="M11.0232 0C17.11 0 22.0462 4.93619 22.0462 11.0229C22.0462 17.1098 17.11 22.046 11.0232 22.046C4.93624 22.046 0 17.1098 0 11.0229C0 4.93619 4.93624 0 11.0232 0Z" fill="#E7223D"/>
<path fill-rule="evenodd" clip-rule="evenodd" d="M129.912 0C135.999 0 140.935 4.93619 140.935 11.0229C140.935 17.1098 135.999 22.046 129.912 22.046C123.825 22.046 118.889 17.1098 118.889 11.0229C118.889 4.93619 123.825 0 129.912 0Z" fill="#E7223D"/>
<path fill-rule="evenodd" clip-rule="evenodd" d="M175.567 0.561035L136.646 56.6575H119.45L158.375 0.561318C158.375 0.561035 175.567 0.561318 175.567 0.561035Z" fill="white"/>
</svg>
